<svg viewBox="0 0 512 512" xmlns="http://www.w3.org/2000/svg" fill-rule="evenodd" clip-rule="evenodd" stroke-linejoin="round" stroke-miterlimit="2"><g fill-rule="nonzero"><path d="M1.305 41.202C5.259 54.386 17.488 64 31.959 64c17.673 0 32-14.327 32-32 0-17.673-14.327-32-32-32C15.001 0 1.124 13.193.028 29.874c2.074 3.477 2.879 5.628 1.275 11.328h.002z" fill="url(#prefix___Linear1)" transform="translate(3.939 3.939) scale(7.8769)"/><path d="M242.688 192.866l.023 1.245-61.676 89.6c-9.988-.457-20.007 1.3-29.523 5.214a64.283 64.283 0 00-11.8 6.302L4.27 239.403s-3.135 51.562 9.924 89.986l95.752 39.51c4.726 21.488 19.535 40.33 41.29 49.388 35.4 14.707 76.643-2.284 91.396-37.667a70.11 70.11 0 005.388-28.798l88.166-63.055 2.167.04c52.814 0 95.743-43.055 95.743-95.94 0-52.886-42.85-95.784-95.743-95.894-52.791 0-95.744 43.008-95.744 95.893h.079zM227.879 374.43c-11.453 27.569-43.055 40.542-70.522 29.097a53.871 53.871 0 01-27.758-26.482l31.169 12.918a39.779 39.779 0 0015.257 3.048c16.006 0 30.516-9.68 36.66-24.465 8.38-20.126-1.269-43.591-21.386-51.996l-32.296-13.351c12.43-4.726 26.561-4.884 39.779.606 13.39 5.538 23.63 15.967 29.113 29.303 5.482 13.335 5.45 28.041-.079 41.322m110.623-117.642c-35.005-.094-63.755-28.9-63.787-63.905.04-34.997 28.79-63.795 63.787-63.89 35.005.087 63.764 28.885 63.803 63.89-.031 35.005-28.798 63.819-63.803 63.905m-47.797-64.007c-.023-26.301 21.59-47.97 47.892-48.01 26.427 0 47.923 21.504 47.923 48.01.016 26.308-21.614 47.97-47.923 47.994-26.301-.04-47.915-21.693-47.9-47.994h.008z" fill="#fff"/></g><g fill-rule="nonzero"><path d="M1.305 41.202C5.259 54.386 17.488 64 31.959 64c17.673 0 32-14.327 32-32 0-17.673-14.327-32-32-32C15.001 0 1.124 13.193.028 29.874c2.074 3.477 2.879 5.628 1.275 11.328h.002z" fill="url(#prefix___Linear2)" transform="scale(7.8769)"/><path d="M238.75 188.928l.023 1.244-61.676 89.6c-9.988-.457-20.008 1.3-29.523 5.215a64.283 64.283 0 00-11.8 6.301L.331 235.464s-3.135 51.563 9.925 89.986l95.752 39.51c4.726 21.489 19.534 40.33 41.29 49.389 35.4 14.706 76.643-2.284 91.396-37.667a70.11 70.11 0 005.388-28.798l88.166-63.055 2.166.04c52.815 0 95.744-43.056 95.744-95.941 0-52.886-42.85-95.783-95.744-95.894-52.79 0-95.744 43.008-95.744 95.894h.08zM223.94 370.49c-11.452 27.57-43.055 40.543-70.521 29.098a53.871 53.871 0 01-27.759-26.483l31.17 12.919a39.779 39.779 0 0015.257 3.048c16.006 0 30.515-9.68 36.659-24.466 8.381-20.125-1.268-43.59-21.386-51.995l-32.295-13.352c12.43-4.726 26.56-4.883 39.778.607 13.391 5.537 23.631 15.966 29.113 29.302 5.483 13.336 5.451 28.042-.078 41.322M334.5 252.85c-35.005-.095-63.756-28.9-63.787-63.905.039-34.998 28.79-63.796 63.787-63.89 35.005.087 63.763 28.885 63.803 63.89-.032 35.004-28.798 63.818-63.803 63.905m-47.797-64.008c-.024-26.3 21.59-47.97 47.891-48.01 26.427 0 47.923 21.504 47.923 48.01.016 26.309-21.614 47.97-47.923 47.994-26.3-.04-47.915-21.693-47.9-47.994h.009z" fill="#fff"/></g><defs><linearGradient id="prefix___Linear1" x1="0" y1="0" x2="1" y2="0" gradientUnits="userSpaceOnUse" gradientTransform="matrix(0 64 -64 0 31.994 0)"><stop offset="0" stop-color="#111d2e"/><stop offset=".21" stop-color="#051839"/><stop offset=".41" stop-color="#0a1b48"/><stop offset=".58" stop-color="#132e62"/><stop offset=".74" stop-color="#144b7e"/><stop offset=".87" stop-color="#136497"/><stop offset="1" stop-color="#1387b8"/></linearGradient><linearGradient id="prefix___Linear2" x1="0" y1="0" x2="1" y2="0" gradientUnits="userSpaceOnUse" gradientTransform="matrix(0 64 -64 0 31.994 0)"><stop offset="0" stop-color="#111d2e"/><stop offset=".21" stop-color="#051839"/><stop offset=".41" stop-color="#0a1b48"/><stop offset=".58" stop-color="#132e62"/><stop offset=".74" stop-color="#144b7e"/><stop offset=".87" stop-color="#136497"/><stop offset="1" stop-color="#1387b8"/></linearGradient></defs></svg>